<!DOCTYPE svg PUBLIC "-//W3C//DTD SVG 1.1//EN" "http://www.w3.org/Graphics/SVG/1.1/DTD/svg11.dtd">
<!-- Uploaded to: SVG Repo, www.svgrepo.com, Transformed by: SVG Repo Mixer Tools -->
<svg fill="#200c83" height="800px" width="800px" version="1.1" xmlns="http://www.w3.org/2000/svg" viewBox="0 0 296 296" xmlns:xlink="http://www.w3.org/1999/xlink" enable-background="new 0 0 296 296" stroke="#200c83" stroke-width="0.592">
<g id="SVGRepo_bgCarrier" stroke-width="0"/>
<g id="SVGRepo_tracerCarrier" stroke-linecap="round" stroke-linejoin="round" stroke="#CCCCCC" stroke-width="10.656"> <g> <path d="m264.262,111.022c-19.42-8.409-34.448-50.874-35.826-103.165-0.115-4.371-3.69-7.857-8.062-7.857h-16.22c-4.021,0-7.41,2.951-7.978,6.931-3.363,23.595-23.651,41.736-48.176,41.736s-44.813-18.141-48.177-41.736c-0.566-3.972-3.966-6.931-7.978-6.931h-16.22c-4.375,0-7.947,3.483-8.062,7.856-1.378,52.292-16.406,94.757-35.826,103.165-4.292,1.858-7.071,6.093-7.071,10.769v162.48c0,6.478 5.251,11.729 11.729,11.729h223.209c6.478,0 11.729-5.251 11.729-11.729v-162.48c5.68434e-14-4.675-2.78-8.91-7.071-10.768zm-21.262,128.312c0,3.314-2.687,6-6,6h-178c-3.313,0-6-2.686-6-6v-69.334c0-3.313 2.687-6 6-6h178c3.313,0 6,2.687 6,6v69.334z"/> <path d="m89.091,191.576c-0.977-1.07-2.148-1.938-3.514-2.605-1.365-0.667-2.854-1.001-4.467-1.001h-12.516c-0.951,0-1.722,0.771-1.722,1.722v29.594c0,0.951 0.771,1.722 1.722,1.722h5.63c0.951,0 1.722-0.771 1.722-1.722v-6.699c0-0.951 0.771-1.722 1.722-1.722h3.674c1.613,0 3.096-0.318 4.445-0.954 1.35-0.636 2.496-1.489 3.443-2.56 0.945-1.07 1.682-2.295 2.209-3.676 0.527-1.38 0.791-2.8 0.791-4.258 0-1.396-0.279-2.784-0.836-4.165-0.557-1.38-1.325-2.606-2.303-3.676zm-6.793,10.609c-0.482,0.512-1,0.768-1.559,0.768h-3.071c-0.951,0-1.722-0.771-1.722-1.722v-3.628c0-0.951 0.771-1.722 1.722-1.722h2.838c0.559,0 1.115,0.248 1.674,0.744 0.559,0.496 0.838,1.427 0.838,2.792 0.001,1.334-0.24,2.256-0.72,2.768z"/> <path d="m123.036,193.042c-1.459-1.582-3.211-2.854-5.258-3.815-2.047-0.962-4.328-1.442-6.84-1.442-2.451,0-4.709,0.458-6.771,1.372-2.063,0.916-3.846,2.141-5.352,3.677-1.504,1.535-2.676,3.311-3.512,5.327-0.838,2.018-1.258,4.111-1.258,6.282 0,2.141 0.404,4.219 1.211,6.235 0.807,2.017 1.938,3.809 3.396,5.374 1.457,1.567 3.211,2.832 5.258,3.793 2.047,0.962 4.328,1.442 6.84,1.442 2.451,0 4.707-0.466 6.771-1.396 2.063-0.931 3.838-2.163 5.328-3.699 1.488-1.535 2.652-3.304 3.49-5.305 0.836-2.001 1.256-4.087 1.256-6.258 0-2.109-0.396-4.172-1.188-6.189-0.789-2.017-1.914-3.816-3.371-5.398zm-5.096,14.611c-0.295,1.055-0.744,1.993-1.35,2.816-0.604,0.822-1.389,1.488-2.35,2-0.961,0.513-2.094,0.768-3.396,0.768-1.303,0-2.428-0.248-3.373-0.745-0.947-0.496-1.73-1.147-2.35-1.954-0.621-0.807-1.088-1.729-1.396-2.769-0.311-1.039-0.465-2.117-0.465-3.234 0-1.085 0.146-2.147 0.441-3.188 0.295-1.039 0.752-1.97 1.373-2.792 0.619-0.821 1.402-1.48 2.35-1.978 0.945-0.495 2.07-0.744 3.373-0.744 1.271,0 2.381,0.24 3.328,0.721 0.945,0.481 1.736,1.117 2.373,1.908 0.635,0.791 1.107,1.706 1.418,2.745 0.311,1.04 0.467,2.117 0.467,3.234 0.001,1.087-0.148,2.157-0.443,3.212z"/> <path d="m138.81,187.969h-5.63c-0.951,0-1.722,0.771-1.722,1.722v29.594c0,0.951 0.771,1.722 1.722,1.722h20.612c0.951,0 1.722-0.771 1.722-1.722v-4.466c0-0.951-0.771-1.722-1.722-1.722h-11.538c-0.951,0-1.722-0.771-1.722-1.722v-21.683c2.84217e-14-0.952-0.771-1.723-1.722-1.723z"/> <path d="m160.401,221.008h5.63c0.951,0 1.722-0.771 1.722-1.722v-29.594c0-0.951-0.771-1.722-1.722-1.722h-5.63c-0.951,0-1.722,0.771-1.722,1.722v29.594c0,0.95 0.771,1.722 1.722,1.722z"/> <path d="m193.833,211.073c-0.48,0.512-1.023,0.931-1.629,1.256-0.604,0.326-1.232,0.559-1.885,0.698-0.65,0.14-1.287,0.21-1.906,0.21-1.18,0-2.242-0.24-3.188-0.722-0.947-0.48-1.746-1.124-2.396-1.931-0.652-0.807-1.148-1.737-1.49-2.792-0.342-1.055-0.512-2.156-0.512-3.304 0-1.024 0.146-2.055 0.441-3.095 0.295-1.039 0.746-1.97 1.35-2.792 0.605-0.821 1.381-1.489 2.328-2.001 0.945-0.512 2.07-0.768 3.373-0.768 0.619,0 1.264,0.063 1.932,0.186 0.666,0.125 1.309,0.342 1.93,0.652 0.621,0.31 1.188,0.729 1.699,1.256 0.137,0.142 0.267,0.293 0.39,0.455 0.581,0.765 1.632,0.984 2.415,0.427l4.041-2.875c0.764-0.544 0.977-1.616 0.428-2.377-1.095-1.518-2.542-2.783-4.342-3.797-2.344-1.318-5.111-1.977-8.307-1.977-2.668,0-5.041,0.48-7.119,1.442-2.078,0.962-3.848,2.218-5.305,3.768-1.459,1.552-2.566,3.304-3.326,5.259-0.762,1.954-1.141,3.939-1.141,5.956 0,2.109 0.402,4.188 1.209,6.235 0.807,2.047 1.947,3.878 3.42,5.49 1.475,1.613 3.226,2.908 5.26,3.886 2.031,0.977 4.271,1.466 6.723,1.466 1.396,0 2.83-0.171 4.305-0.512 1.473-0.341 2.854-0.838 4.141-1.489 1.287-0.651 2.436-1.458 3.443-2.42 0.535-0.51 0.998-1.055 1.389-1.635 0.557-0.827 0.317-1.952-0.539-2.463l-4.45-2.659c-0.784-0.469-1.765-0.22-2.308,0.515-0.117,0.162-0.242,0.311-0.374,0.452z"/> <path d="m216.38,207.885h8.561c0.951,0 1.722-0.771 1.722-1.722v-3.908c0-0.951-0.771-1.722-1.722-1.722h-8.561c-0.951,0-1.722-0.771-1.722-1.722v-1.208c0-0.951 0.771-1.722 1.722-1.722h10.608c0.951,0 1.722-0.771 1.722-1.722v-4.467c0-0.951-0.771-1.722-1.722-1.722h-19.682c-0.951,0-1.722,0.771-1.722,1.722v29.594c0,0.951 0.771,1.722 1.722,1.722h20.1c0.951,0 1.722-0.771 1.722-1.722v-4.466c0-0.951-0.771-1.722-1.722-1.722h-11.026c-0.951,0-1.722-0.771-1.722-1.722v-1.767c-0.001-0.953 0.77-1.724 1.722-1.724z"/> </g> </g>
<g id="SVGRepo_iconCarrier"> <g> <path d="m264.262,111.022c-19.42-8.409-34.448-50.874-35.826-103.165-0.115-4.371-3.69-7.857-8.062-7.857h-16.22c-4.021,0-7.41,2.951-7.978,6.931-3.363,23.595-23.651,41.736-48.176,41.736s-44.813-18.141-48.177-41.736c-0.566-3.972-3.966-6.931-7.978-6.931h-16.22c-4.375,0-7.947,3.483-8.062,7.856-1.378,52.292-16.406,94.757-35.826,103.165-4.292,1.858-7.071,6.093-7.071,10.769v162.48c0,6.478 5.251,11.729 11.729,11.729h223.209c6.478,0 11.729-5.251 11.729-11.729v-162.48c5.68434e-14-4.675-2.78-8.91-7.071-10.768zm-21.262,128.312c0,3.314-2.687,6-6,6h-178c-3.313,0-6-2.686-6-6v-69.334c0-3.313 2.687-6 6-6h178c3.313,0 6,2.687 6,6v69.334z"/> <path d="m89.091,191.576c-0.977-1.07-2.148-1.938-3.514-2.605-1.365-0.667-2.854-1.001-4.467-1.001h-12.516c-0.951,0-1.722,0.771-1.722,1.722v29.594c0,0.951 0.771,1.722 1.722,1.722h5.63c0.951,0 1.722-0.771 1.722-1.722v-6.699c0-0.951 0.771-1.722 1.722-1.722h3.674c1.613,0 3.096-0.318 4.445-0.954 1.35-0.636 2.496-1.489 3.443-2.56 0.945-1.07 1.682-2.295 2.209-3.676 0.527-1.38 0.791-2.8 0.791-4.258 0-1.396-0.279-2.784-0.836-4.165-0.557-1.38-1.325-2.606-2.303-3.676zm-6.793,10.609c-0.482,0.512-1,0.768-1.559,0.768h-3.071c-0.951,0-1.722-0.771-1.722-1.722v-3.628c0-0.951 0.771-1.722 1.722-1.722h2.838c0.559,0 1.115,0.248 1.674,0.744 0.559,0.496 0.838,1.427 0.838,2.792 0.001,1.334-0.24,2.256-0.72,2.768z"/> <path d="m123.036,193.042c-1.459-1.582-3.211-2.854-5.258-3.815-2.047-0.962-4.328-1.442-6.84-1.442-2.451,0-4.709,0.458-6.771,1.372-2.063,0.916-3.846,2.141-5.352,3.677-1.504,1.535-2.676,3.311-3.512,5.327-0.838,2.018-1.258,4.111-1.258,6.282 0,2.141 0.404,4.219 1.211,6.235 0.807,2.017 1.938,3.809 3.396,5.374 1.457,1.567 3.211,2.832 5.258,3.793 2.047,0.962 4.328,1.442 6.84,1.442 2.451,0 4.707-0.466 6.771-1.396 2.063-0.931 3.838-2.163 5.328-3.699 1.488-1.535 2.652-3.304 3.49-5.305 0.836-2.001 1.256-4.087 1.256-6.258 0-2.109-0.396-4.172-1.188-6.189-0.789-2.017-1.914-3.816-3.371-5.398zm-5.096,14.611c-0.295,1.055-0.744,1.993-1.35,2.816-0.604,0.822-1.389,1.488-2.35,2-0.961,0.513-2.094,0.768-3.396,0.768-1.303,0-2.428-0.248-3.373-0.745-0.947-0.496-1.73-1.147-2.35-1.954-0.621-0.807-1.088-1.729-1.396-2.769-0.311-1.039-0.465-2.117-0.465-3.234 0-1.085 0.146-2.147 0.441-3.188 0.295-1.039 0.752-1.97 1.373-2.792 0.619-0.821 1.402-1.48 2.35-1.978 0.945-0.495 2.07-0.744 3.373-0.744 1.271,0 2.381,0.24 3.328,0.721 0.945,0.481 1.736,1.117 2.373,1.908 0.635,0.791 1.107,1.706 1.418,2.745 0.311,1.04 0.467,2.117 0.467,3.234 0.001,1.087-0.148,2.157-0.443,3.212z"/> <path d="m138.81,187.969h-5.63c-0.951,0-1.722,0.771-1.722,1.722v29.594c0,0.951 0.771,1.722 1.722,1.722h20.612c0.951,0 1.722-0.771 1.722-1.722v-4.466c0-0.951-0.771-1.722-1.722-1.722h-11.538c-0.951,0-1.722-0.771-1.722-1.722v-21.683c2.84217e-14-0.952-0.771-1.723-1.722-1.723z"/> <path d="m160.401,221.008h5.63c0.951,0 1.722-0.771 1.722-1.722v-29.594c0-0.951-0.771-1.722-1.722-1.722h-5.63c-0.951,0-1.722,0.771-1.722,1.722v29.594c0,0.95 0.771,1.722 1.722,1.722z"/> <path d="m193.833,211.073c-0.48,0.512-1.023,0.931-1.629,1.256-0.604,0.326-1.232,0.559-1.885,0.698-0.65,0.14-1.287,0.21-1.906,0.21-1.18,0-2.242-0.24-3.188-0.722-0.947-0.48-1.746-1.124-2.396-1.931-0.652-0.807-1.148-1.737-1.49-2.792-0.342-1.055-0.512-2.156-0.512-3.304 0-1.024 0.146-2.055 0.441-3.095 0.295-1.039 0.746-1.97 1.35-2.792 0.605-0.821 1.381-1.489 2.328-2.001 0.945-0.512 2.07-0.768 3.373-0.768 0.619,0 1.264,0.063 1.932,0.186 0.666,0.125 1.309,0.342 1.93,0.652 0.621,0.31 1.188,0.729 1.699,1.256 0.137,0.142 0.267,0.293 0.39,0.455 0.581,0.765 1.632,0.984 2.415,0.427l4.041-2.875c0.764-0.544 0.977-1.616 0.428-2.377-1.095-1.518-2.542-2.783-4.342-3.797-2.344-1.318-5.111-1.977-8.307-1.977-2.668,0-5.041,0.48-7.119,1.442-2.078,0.962-3.848,2.218-5.305,3.768-1.459,1.552-2.566,3.304-3.326,5.259-0.762,1.954-1.141,3.939-1.141,5.956 0,2.109 0.402,4.188 1.209,6.235 0.807,2.047 1.947,3.878 3.42,5.49 1.475,1.613 3.226,2.908 5.26,3.886 2.031,0.977 4.271,1.466 6.723,1.466 1.396,0 2.83-0.171 4.305-0.512 1.473-0.341 2.854-0.838 4.141-1.489 1.287-0.651 2.436-1.458 3.443-2.42 0.535-0.51 0.998-1.055 1.389-1.635 0.557-0.827 0.317-1.952-0.539-2.463l-4.45-2.659c-0.784-0.469-1.765-0.22-2.308,0.515-0.117,0.162-0.242,0.311-0.374,0.452z"/> <path d="m216.38,207.885h8.561c0.951,0 1.722-0.771 1.722-1.722v-3.908c0-0.951-0.771-1.722-1.722-1.722h-8.561c-0.951,0-1.722-0.771-1.722-1.722v-1.208c0-0.951 0.771-1.722 1.722-1.722h10.608c0.951,0 1.722-0.771 1.722-1.722v-4.467c0-0.951-0.771-1.722-1.722-1.722h-19.682c-0.951,0-1.722,0.771-1.722,1.722v29.594c0,0.951 0.771,1.722 1.722,1.722h20.1c0.951,0 1.722-0.771 1.722-1.722v-4.466c0-0.951-0.771-1.722-1.722-1.722h-11.026c-0.951,0-1.722-0.771-1.722-1.722v-1.767c-0.001-0.953 0.77-1.724 1.722-1.724z"/> </g> </g>
</svg>